<?xml version="1.0" encoding="utf-8"?>
<!-- Generator: Adobe Illustrator 25.3.1, SVG Export Plug-In . SVG Version: 6.00 Build 0)  -->
<svg version="1.1" id="Layer_1" xmlns="http://www.w3.org/2000/svg" xmlns:xlink="http://www.w3.org/1999/xlink" x="0px" y="0px"
	 viewBox="0 0 18.5 18.5" style="enable-background:new 0 0 18.5 18.5;" xml:space="preserve">
<g>
	<path class="st0" d="M8.8,8.8h0.9c0.6,0,1-0.5,1-1c0-0.3-0.1-0.5-0.3-0.7S10,6.8,9.7,6.8c0,0,0,0,0,0H8.8c-0.6,0-1,0.5-1,1
		C7.8,8.3,8.2,8.8,8.8,8.8z"/>
	<path class="st0" d="M13.5,12h0.9c0.5,0,1-0.5,1-1c0-0.6-0.5-1-1-1h-0.9c-0.6,0-1,0.5-1,1C12.5,11.5,13,12,13.5,12z"/>
	<path class="st0" d="M8.8,12l0.9,0l0.1,0h0c0.3,0,0.5-0.1,0.7-0.3c0.2-0.2,0.3-0.4,0.3-0.7c0-0.6-0.5-1-1-1H8.8c-0.6,0-1,0.5-1,1
		C7.8,11.5,8.2,12,8.8,12z"/>
	<path class="st0" d="M13.5,8.8l0.9,0c0.5,0,1-0.5,1-1c0-0.6-0.5-1-1-1h-0.9c-0.6,0-1,0.5-1,1C12.5,8.3,13,8.8,13.5,8.8z"/>
	<path class="st0" d="M13.5,15.2l0.9,0c0.5,0,1-0.5,1-1c0-0.6-0.5-1-1-1h-0.9c-0.6,0-1,0.5-1,1S13,15.2,13.5,15.2z"/>
	<path class="st0" d="M15.5,1.3h-1V1c0-0.6-0.5-1-1-1c-0.6,0-1,0.5-1,1v0.2H5.9V1c0-0.6-0.5-1-1-1c-0.6,0-1,0.5-1,1v0.2H3
		c-1.6,0-3,1.3-3,3v11.3c0,1.6,1.3,3,3,3h0h12.5c1.6,0,2.9-1.3,3-2.9V4.2C18.5,2.6,17.2,1.3,15.5,1.3z M2,4.2C2,3.7,2.4,3.2,3,3.2
		h0.9v0.3c0,0.6,0.5,1,1,1c0,0,0,0,0,0c0.5,0,1-0.4,1-1V3.3h6.6v0.2c0,0.6,0.5,1,1,1c0.5,0,1-0.4,1-1V3.3h1c0.5,0,0.9,0.4,0.9,0.9
		v11.3c0,0.5-0.4,0.9-0.9,0.9H3C2.5,16.4,2,16,2,15.5V4.2z"/>
	<path class="st0" d="M8.8,15.2h0.9c0.6,0,1-0.5,1-1c0-0.3-0.1-0.5-0.3-0.7c-0.2-0.2-0.4-0.3-0.7-0.3c0,0,0,0,0,0H8.8
		c-0.6,0-1,0.5-1,1S8.2,15.2,8.8,15.2z"/>
	<path class="st0" d="M4.1,15.2l0.9,0c0.5,0,1-0.5,1-1c0-0.6-0.5-1-1-1H4.1c-0.6,0-1,0.5-1,1S3.5,15.2,4.1,15.2z"/>
	<path class="st0" d="M4.1,12L4.1,12L5,12c0.5,0,1-0.5,1-1c0-0.5-0.5-1-1-1H4.1c-0.6,0-1,0.5-1,1C3.1,11.5,3.5,12,4.1,12z"/>
	<path class="st0" d="M4.1,8.8C4.1,8.8,4.1,8.8,4.1,8.8l0.9,0c0.5,0,1-0.5,1-1c0-0.6-0.5-1-1-1H4.1c-0.6,0-1,0.5-1,1
		C3.1,8.3,3.5,8.8,4.1,8.8z"/>
</g>
</svg>
