<?xml version="1.0" encoding="utf-8"?>
<!-- Generator: Adobe Illustrator 25.3.1, SVG Export Plug-In . SVG Version: 6.00 Build 0)  -->
<svg version="1.1" id="Layer_1" xmlns="http://www.w3.org/2000/svg" xmlns:xlink="http://www.w3.org/1999/xlink" x="0px" y="0px"
	 viewBox="0 0 18.5 18.5" style="enable-background:new 0 0 18.5 18.5;" xml:space="preserve">
<g>
	<path class="st0" d="M7.8,5.8h6c0.6,0,1-0.4,1-1s-0.4-1-1-1h-6c-0.6,0-1,0.4-1,1S7.2,5.8,7.8,5.8z"/>
	<path class="st0" d="M4.4,12.8c-0.1,0-0.2,0.1-0.3,0.2c-0.1,0.1-0.2,0.2-0.2,0.3c-0.2,0.4-0.1,0.8,0.2,1.1l0.4,0.4v-0.2
		c0.1,0,0.2,0,0.3,0c0,0,0,0,0,0c0.6,0,1-0.4,1-1c0-0.1,0-0.3-0.1-0.4C5.4,12.8,4.9,12.6,4.4,12.8z"/>
	<path class="st0" d="M7.8,10.2h6c0.6,0,1-0.4,1-1s-0.4-1-1-1h-6c-0.6,0-1,0.4-1,1S7.2,10.2,7.8,10.2z"/>
	<path class="st0" d="M4,5.5L4,5.5c0.2,0.2,0.4,0.3,0.7,0.3c0.1,0,0.1,0,0.2,0c0.1,0,0.1,0,0.2-0.1c0.1,0,0.1-0.1,0.2-0.1l0.1-0.1
		C5.6,5.3,5.7,5,5.8,4.7c0-0.1,0-0.3-0.1-0.4c0-0.1-0.1-0.2-0.2-0.3L5.3,3.9c-0.1,0-0.1-0.1-0.2-0.1C5.1,3.8,5,3.8,5,3.8
		c-0.2,0-0.4,0-0.6,0.1C4.3,3.9,4.1,3.9,4,4C3.9,4.1,3.9,4.3,3.8,4.4c-0.1,0.2-0.1,0.5,0,0.8C3.9,5.2,3.9,5.4,4,5.5z"/>
	<path class="st0" d="M16,0H2.5C1.1,0,0,1.1,0,2.5V16c0,1.4,1.1,2.5,2.5,2.5H16c1.4,0,2.5-1.1,2.5-2.5V2.5C18.5,1.1,17.4,0,16,0z
		 M2.5,2H16c0.3,0,0.5,0.2,0.5,0.5V16c0,0.3-0.2,0.5-0.5,0.5H2.5C2.2,16.5,2,16.3,2,16V2.5C2,2.2,2.2,2,2.5,2z"/>
	<path class="st0" d="M4,10c0.2,0.2,0.4,0.3,0.7,0.3c0.5,0,1-0.5,1-1c0-0.1,0-0.1,0-0.2c0-0.1,0-0.1-0.1-0.2c0-0.1-0.1-0.1-0.1-0.2
		L5.4,8.5C5.4,8.4,5.2,8.4,5.1,8.3c-0.2-0.1-0.5-0.1-0.8,0C4.3,8.4,4.1,8.4,4,8.6L3.9,8.7c0,0.1-0.1,0.1-0.1,0.2
		c0,0.1-0.1,0.1-0.1,0.2c0,0.1,0,0.1,0,0.2C3.8,9.5,3.9,9.8,4,10L4,10z"/>
	<path class="st0" d="M7.8,14.8h6c0.6,0,1-0.4,1-1s-0.4-1-1-1h-6c-0.6,0-1,0.4-1,1S7.2,14.8,7.8,14.8z"/>
</g>
</svg>
