<?xml version="1.0" encoding="utf-8"?>
<!-- Generator: Adobe Illustrator 25.3.1, SVG Export Plug-In . SVG Version: 6.00 Build 0)  -->
<svg version="1.1" id="graph" xmlns="http://www.w3.org/2000/svg" xmlns:xlink="http://www.w3.org/1999/xlink" x="0px" y="0px"
	 viewBox="0 0 18 18" style="enable-background:new 0 0 18 18;" xml:space="preserve">
<style type="text/css">
	.st0{fill:none;}
	
</style>
<g id="Rectangle_10">
	<path class="st0" d="M3,0h12c1.7,0,3,1.3,3,3v12c0,1.7-1.3,3-3,3H3c-1.7,0-3-1.3-3-3V3C0,1.3,1.3,0,3,0z"/>
	<path class="st1" d="M15,18H3c-1.7,0-3-1.3-3-3V3c0-1.7,1.3-3,3-3h12c1.7,0,3,1.3,3,3v12C18,16.7,16.7,18,15,18z M3,2
		C2.4,2,2,2.4,2,3v12c0,0.6,0.4,1,1,1h12c0.6,0,1-0.4,1-1V3c0-0.6-0.4-1-1-1H3z"/>
</g>
<path class="st1" d="M5.5,14.5c-0.6,0-1-0.4-1-1v-6c0-0.6,0.4-1,1-1s1,0.4,1,1v6C6.5,14.1,6.1,14.5,5.5,14.5z"/>
<path class="st1" d="M13.5,14.5c-0.6,0-1-0.4-1-1v-4c0-0.6,0.4-1,1-1s1,0.4,1,1v4C14.5,14.1,14.1,14.5,13.5,14.5z"/>
<path class="st1" d="M9.5,14.5c-0.6,0-1-0.4-1-1v-9c0-0.6,0.4-1,1-1c0.6,0,1,0.4,1,1v9C10.5,14.1,10.1,14.5,9.5,14.5z"/>
</svg>
