<svg id="logo-icon" xmlns="http://www.w3.org/2000/svg" width="40" height="25.882" viewBox="0 0 40 25.882">
  <path id="Path_1" data-name="Path 1" d="M24.175-14.709a6.02,6.02,0,0,0-.9-.671,10.937,10.937,0,0,0-1.588-.829,13.68,13.68,0,0,0-2.029-.688,8.863,8.863,0,0,0-2.224-.282,4.986,4.986,0,0,0-3,.741,2.452,2.452,0,0,0-.988,2.082,2.14,2.14,0,0,0,.371,1.288,3.2,3.2,0,0,0,1.076.9,9.056,9.056,0,0,0,1.782.706q1.076.318,2.488.671Q21-10.3,22.5-9.732a9.037,9.037,0,0,1,2.541,1.412,5.829,5.829,0,0,1,1.606,2.029,6.728,6.728,0,0,1,.565,2.912A7.251,7.251,0,0,1,26.451.062,6.375,6.375,0,0,1,24.4,2.374a8.9,8.9,0,0,1-2.965,1.288,14.876,14.876,0,0,1-3.512.406,18.863,18.863,0,0,1-5.576-.847A17.217,17.217,0,0,1,7.41.821l2.153-4.2a6.8,6.8,0,0,0,1.147.829,17.533,17.533,0,0,0,1.959,1.024,15.24,15.24,0,0,0,2.506.865A11.323,11.323,0,0,0,18-.309q4.024,0,4.024-2.576a2.113,2.113,0,0,0-.459-1.376,3.892,3.892,0,0,0-1.306-.988,12.5,12.5,0,0,0-2.047-.776q-1.2-.353-2.682-.776A22.8,22.8,0,0,1,12.4-7.879,8.212,8.212,0,0,1,10.2-9.256a5.158,5.158,0,0,1-1.324-1.835,6.357,6.357,0,0,1-.441-2.488,7.79,7.79,0,0,1,.706-3.388A6.848,6.848,0,0,1,11.1-19.438a8.874,8.874,0,0,1,2.912-1.5,12.032,12.032,0,0,1,3.565-.512,13.834,13.834,0,0,1,4.871.829,18.138,18.138,0,0,1,3.882,1.959Z" transform="translate(3.178 21.45)" fill="#354052"/>
  <circle id="Ellipse_1" data-name="Ellipse 1" cx="3.529" cy="3.529" r="3.529" transform="translate(0 18.824)" fill="#ffa101"/>
  <circle id="Ellipse_2" data-name="Ellipse 2" cx="3.529" cy="3.529" r="3.529" transform="translate(32.941 18.824)" fill="#ffa101"/>
</svg>
