<?xml version="1.0" encoding="utf-8"?>
<!-- Generator: Adobe Illustrator 25.3.1, SVG Export Plug-In . SVG Version: 6.00 Build 0)  -->
<svg version="1.1" id="Layer_1" xmlns="http://www.w3.org/2000/svg" xmlns:xlink="http://www.w3.org/1999/xlink" x="0px" y="0px"
	 viewBox="0 0 19.1 19" style="enable-background:new 0 0 19.1 19;" xml:space="preserve">
<style type="text/css">
	.st0{fill:#BBC5D5;}
</style>
<g>
	<path class="st0" d="M3.8,10.7H11c0.7,0,1.2-0.5,1.2-1.2c0-0.7-0.5-1.2-1.2-1.2H3.8l0.3-0.3c0.5-0.5,0.5-1.2,0-1.7
		c-0.5-0.5-1.2-0.5-1.7,0L0.8,7.9c-0.9,0.9-0.9,2.3,0,3.2l1.6,1.6c0.2,0.2,0.5,0.4,0.9,0.4c0,0,0,0,0,0c0.3,0,0.6-0.1,0.9-0.4
		c0.5-0.5,0.5-1.2,0-1.7L3.8,10.7z"/>
	<path class="st0" d="M15.8,0H8.8C6.9,0,5.4,1.5,5.4,3.3v1.4c0,0.7,0.5,1.2,1.2,1.2s1.2-0.5,1.2-1.2V3.3c0-0.5,0.4-0.9,0.9-0.9h7.1
		c0.5,0,0.9,0.4,0.9,0.9v12.4c0,0.5-0.4,0.9-0.9,0.9H8.8c-0.5,0-0.9-0.4-0.9-0.9v-1.4c0-0.7-0.5-1.2-1.2-1.2c-0.7,0-1.2,0.5-1.2,1.2
		v1.4c0,1.8,1.5,3.3,3.3,3.3h7.1c1.8,0,3.3-1.5,3.3-3.3V3.3C19.1,1.5,17.7,0,15.8,0z"/>
</g>
</svg>
