<?xml version="1.0" encoding="utf-8"?>
<!-- Generator: Adobe Illustrator 25.3.1, SVG Export Plug-In . SVG Version: 6.00 Build 0)  -->
<svg version="1.1" id="Layer_1" xmlns="http://www.w3.org/2000/svg" xmlns:xlink="http://www.w3.org/1999/xlink" x="0px" y="0px"
	 viewBox="0 0 18.5 17.5" style="enable-background:new 0 0 18.5 17.5;" xml:space="preserve">
<g>
	<path class="st0" d="M0,13.8c0,0.5,0.4,1,1,1h4.9c0,0,0,0,0,0c0.5,0,0.9-0.4,1-0.9v0c0-0.5-0.4-1-1-1H1C0.4,12.8,0,13.2,0,13.8z
		 M6.6,13.8L6.6,13.8L6.6,13.8L6.6,13.8z"/>
	<path class="st0" d="M8,15.6H1c-0.5,0-1,0.4-1,1s0.4,1,1,1h7c0,0,0,0,0,0c0.5,0,0.9-0.4,1-1v-0.6l-0.1,0.1
		C8.6,15.8,8.3,15.6,8,15.6z"/>
	<path class="st0" d="M14,0H4.5C2,0,0,2,0,4.5v5.4c0,1.1,0.9,2,2,2h2.1c0.5,0,1-0.4,1-1s-0.4-1-1-1H2c-0.1,0-0.1,0-0.1-0.1V4.5
		c0-1.4,1.2-2.6,2.6-2.6H14c1.4,0,2.6,1.2,2.6,2.6v5.8c0,1.4-1.2,2.6-2.6,2.6H8.7c-0.5,0-1,0.4-1,1s0.4,1,1,1H14
		c2.5,0,4.5-2,4.5-4.5V4.5C18.5,2,16.5,0,14,0z"/>
	<path class="st0" d="M9.3,9.7c0.9,0,1.7-0.3,2.5-0.8l0,0l3.6-2.7c0.4-0.3,0.5-0.9,0.2-1.3c-0.3-0.4-0.9-0.5-1.3-0.2l-3.4,2.6
		C9.9,8,8.6,8,7.7,7.3L4.4,4.7C4,4.4,3.4,4.5,3.1,4.9s-0.2,1,0.2,1.3l3.3,2.6C7.4,9.4,8.3,9.7,9.3,9.7z"/>
</g>
</svg>
