<?xml version="1.0" encoding="utf-8"?>
<!-- Generator: Adobe Illustrator 25.3.1, SVG Export Plug-In . SVG Version: 6.00 Build 0)  -->
<svg version="1.1" id="Layer_1" xmlns="http://www.w3.org/2000/svg" xmlns:xlink="http://www.w3.org/1999/xlink" x="0px" y="0px"
	 viewBox="0 0 15.4 18.5" style="enable-background:new 0 0 15.4 18.5;" xml:space="preserve">
<style type="text/css">
	.st0{fill:#354052;}
</style>
<path class="st0" d="M14.6,12l-0.4-3.1c0-2.8-1.8-5.2-4.4-6.1V2.2c0-0.6-0.3-1.1-0.7-1.5C8.8,0.2,8.3,0,7.7,0c-1.2,0-2.1,1-2.1,2.1
	v0.6C3,3.7,1.2,6.2,1.2,8.9L0.8,12C0.3,12.5,0,13.1,0,13.8v0.1c0,1.2,0.8,1.8,2.4,1.8h1.9c0.3,1.6,1.7,2.8,3.3,2.8
	c0.1,0,0.3,0,0.4,0c1.5-0.2,2.7-1.3,2.9-2.7h2.2c0.6,0,2.4,0,2.4-1.8v-0.1C15.4,13.1,15.1,12.5,14.6,12z M8.5,16
	c-0.2,0.3-0.6,0.4-0.9,0.4c-0.4,0-0.7-0.2-0.9-0.4H8.5z M7.8,2.2v2.3l0.8,0.2C10.7,5,12.2,6.9,12.2,9l0.5,4.3l0.5,0.2
	c0.1,0,0.1,0.1,0.1,0.1c-0.1,0-0.2,0-0.2,0H2.4c-0.1,0-0.2,0-0.2,0c0-0.1,0.1-0.1,0.1-0.1l0.5-0.2l0.5-4.2l0-0.1
	c0-2.1,1.5-3.9,3.5-4.4l0.8-0.2V2.2C7.6,2.1,7.8,2.1,7.8,2.2z"/>
</svg>
