<?xml version="1.0" encoding="utf-8"?>
<!-- Generator: Adobe Illustrator 25.3.1, SVG Export Plug-In . SVG Version: 6.00 Build 0)  -->
<svg version="1.1" id="Layer_1" xmlns="http://www.w3.org/2000/svg" xmlns:xlink="http://www.w3.org/1999/xlink" x="0px" y="0px"
	 viewBox="0 0 16.8 18.5" style="enable-background:new 0 0 16.8 18.5;" xml:space="preserve">
<g>
	<path class="st0" d="M16.7,12c-0.2-0.6-0.6-1.1-1.2-1.4c-0.1-0.1-0.2-0.2-0.2-0.3c0-0.3,0.1-0.6,0.1-1c0-0.3,0-0.7-0.1-1
		c0-0.1,0-0.3,0.2-0.3l0.1,0c0.5-0.3,0.9-0.8,1.1-1.4s0.1-1.2-0.2-1.8c-0.6-1.1-2.1-1.5-3.2-0.9l-0.1,0c-0.1,0.1-0.3,0.1-0.4,0
		c-0.5-0.4-1.1-0.8-1.8-1c-0.1-0.1-0.2-0.2-0.2-0.3V2.3C10.7,1,9.7,0,8.4,0c0,0,0,0-0.1,0C7.7,0,7.1,0.2,6.7,0.7
		C6.2,1.1,6,1.7,6,2.4c0,0.1-0.1,0.3-0.2,0.3C5.1,2.9,4.5,3.3,4,3.7c-0.1,0.1-0.3,0.1-0.4,0C2.4,3.1,1,3.5,0.3,4.7
		C0,5.2-0.1,5.8,0.1,6.4C0.3,7,0.7,7.5,1.2,7.9c0.1,0.1,0.2,0.2,0.2,0.4c-0.1,0.7-0.1,1.3,0,2c0,0.1-0.1,0.3-0.2,0.4
		c-0.5,0.3-0.9,0.8-1.1,1.4c-0.2,0.6-0.1,1.2,0.2,1.8c0.6,1.1,2.1,1.5,3.2,0.9c0.1-0.1,0.3-0.1,0.4,0c0.6,0.5,1.2,0.8,1.9,1.1
		C5.9,15.8,6,16,6,16.1l0,0c0,0,0,0.1,0,0.1c0,0.6,0.3,1.2,0.7,1.7c0.4,0.4,1,0.7,1.6,0.7c0,0,0,0,0.1,0c0.6,0,1.2-0.3,1.7-0.7
		c0.4-0.5,0.7-1.1,0.7-1.7c0-0.1,0.1-0.3,0.2-0.3c0.7-0.3,1.3-0.6,1.8-1.1c0.1-0.1,0.3-0.1,0.4,0c1.1,0.6,2.6,0.2,3.2-0.8l0-0.1
		C16.8,13.2,16.8,12.6,16.7,12z M1.9,12.5c0-0.1,0.1-0.2,0.2-0.3C3,11.8,3.4,10.9,3.3,10c0-0.2,0-0.5,0-0.7c0-0.2,0-0.5,0.1-0.7
		C3.4,7.6,3,6.7,2.1,6.2C1.9,6.1,1.9,5.8,2,5.6c0.1-0.2,0.4-0.3,0.7-0.2c0.8,0.5,1.8,0.4,2.5-0.2C5.6,4.9,6,4.7,6.5,4.5
		c0.9-0.3,1.5-1.2,1.5-2.1c0-0.2,0.2-0.5,0.5-0.5c0.2,0,0.5,0.2,0.5,0.5c0,0.9,0.6,1.8,1.4,2.1c0.5,0.2,0.9,0.4,1.3,0.8
		c0.7,0.6,1.7,0.7,2.5,0.2l0.1,0c0.2-0.1,0.5,0,0.6,0.2l0,0c0.1,0.2,0,0.5-0.2,0.6c-0.8,0.5-1.2,1.4-1.1,2.3c0,0.2,0.1,0.5,0.1,0.7
		c0,0.2,0,0.5,0,0.7c-0.1,0.9,0.3,1.8,1.2,2.3c0.1,0.1,0.2,0.2,0.2,0.3c0,0.1,0,0.2,0,0.3c-0.1,0.2-0.4,0.3-0.6,0.2
		c-0.8-0.5-1.8-0.4-2.5,0.2c-0.4,0.3-0.9,0.6-1.3,0.8c-0.9,0.3-1.4,1.2-1.4,2.1c0,0.2-0.2,0.5-0.5,0.5s-0.5-0.2-0.5-0.5
		c0-0.9-0.6-1.8-1.4-2.1c-0.5-0.2-0.9-0.5-1.3-0.8l-0.1,0h0c-0.7-0.5-1.7-0.6-2.5-0.2c-0.2,0.1-0.5,0-0.6-0.2
		C1.9,12.7,1.9,12.6,1.9,12.5z"/>
	<path class="st0" d="M6.3,9c0,0.1,0,0.1,0,0.2c-0.3,0.2-0.4,0.7-0.2,1c0.2,0.3,0.7,0.5,1,0.3c0.1,0.1,0.3,0.2,0.4,0.2
		c0,0.4,0.4,0.7,0.8,0.7c0.4,0,0.8-0.3,0.8-0.7c0.1-0.1,0.3-0.1,0.4-0.2l0,0c0.4,0.2,0.8,0,1-0.3c0.2-0.4,0.1-0.8-0.3-1
		c0-0.1,0-0.1,0-0.2c0-0.1,0-0.1,0-0.2c0.3-0.2,0.5-0.7,0.2-1c-0.2-0.4-0.7-0.5-1-0.3C9.4,7.3,9.2,7.2,9.1,7.2
		c0-0.4-0.4-0.7-0.8-0.7c-0.4,0-0.8,0.3-0.8,0.7C7.4,7.2,7.3,7.3,7.1,7.4c-0.4-0.2-0.8,0-1,0.3C5.9,8.1,6,8.5,6.3,8.8
		C6.3,8.8,6.3,8.9,6.3,9z"/>
</g>
</svg>
