<?xml version="1.0" encoding="utf-8"?>
<!-- Generator: Adobe Illustrator 25.3.1, SVG Export Plug-In . SVG Version: 6.00 Build 0)  -->
<svg version="1.1" id="Layer_1" xmlns="http://www.w3.org/2000/svg" xmlns:xlink="http://www.w3.org/1999/xlink" x="0px" y="0px"
	 viewBox="0 0 18.7 17.7" style="enable-background:new 0 0 18.7 17.7;" xml:space="preserve">
<g>
	<path class="st0" d="M6.3,5C6.6,5.3,7,5.3,7.2,5l0.2-0.2c0.1-0.1,0.2-0.3,0.2-0.5c0-0.2-0.1-0.3-0.2-0.5L6.9,3.4l5.6,0L12,3.9
		c-0.1,0.1-0.2,0.3-0.2,0.5c0,0.2,0.1,0.3,0.2,0.5l0,0l0,0L12.2,5c0.1,0.1,0.3,0.2,0.5,0.2S13,5.1,13.1,5L15,3.1
		c0.3-0.3,0.3-0.7,0-0.9l-1.9-1.9c-0.3-0.2-0.7-0.2-0.9,0L12,0.4c-0.3,0.3-0.3,0.7,0,0.9l0.5,0.5l-5.6,0l0.5-0.5
		c0.3-0.3,0.3-0.7,0-0.9L7.2,0.2C7-0.1,6.6-0.1,6.3,0.2L4.4,2.1c-0.3,0.3-0.3,0.7,0,0.9L6.3,5z"/>
	<path class="st0" d="M10.9,9.4L10.9,9.4c0,1.8,1.4,3.2,3.2,3.2c1.8,0,3.2-1.4,3.2-3.2c0-1.8-1.4-3.2-3.2-3.2S10.9,7.6,10.9,9.4z
		 M14.1,11c-0.9,0-1.7-0.7-1.7-1.7c0-0.9,0.7-1.7,1.7-1.7c0.9,0,1.7,0.7,1.7,1.7S15,11,14.1,11z"/>
	<path class="st0" d="M4.9,12.7H4.2C1.9,12.7,0,14.6,0,17c0,0.2,0.1,0.4,0.3,0.5c0.1,0.1,0.3,0.2,0.5,0.2c0,0,0,0,0,0
		c0.4,0,0.8-0.4,0.7-0.8c0-1.5,1.2-2.7,2.7-2.7h0.6c1.5,0,2.7,1.2,2.7,2.7l0,0c0,0.4,0.3,0.7,0.7,0.7c0.2,0,0.4-0.1,0.6-0.2
		c0.2-0.1,0.2-0.3,0.3-0.6C9.1,14.6,7.2,12.7,4.9,12.7z"/>
	<path class="st0" d="M14.5,12.7h-0.6c-2.3,0-4.2,1.9-4.2,4.2c0,0.4,0.3,0.7,0.7,0.7c0.2,0,0.4-0.1,0.6-0.2c0.2-0.1,0.2-0.3,0.3-0.6
		c0-1.5,1.2-2.7,2.7-2.7h0.6c1.5,0,2.7,1.2,2.7,2.7h0.3l0,0L17.2,17c0,0.4,0.4,0.7,0.8,0.7c0,0,0,0,0,0c0.2,0,0.4-0.1,0.5-0.3
		c0.1-0.2,0.2-0.4,0.2-0.5C18.7,14.6,16.8,12.7,14.5,12.7z"/>
	<path class="st0" d="M4.5,12.6c1.8,0,3.2-1.4,3.2-3.2c0-1.8-1.4-3.2-3.2-3.2c-1.8,0-3.2,1.4-3.2,3.2v0C1.3,11.1,2.7,12.6,4.5,12.6z
		 M2.8,9.4c0-0.9,0.7-1.7,1.7-1.7c0.4,0,0.9,0.2,1.2,0.5s0.5,0.7,0.5,1.2c0,0.4-0.2,0.9-0.5,1.2C5.4,10.8,4.9,11,4.5,11c0,0,0,0,0,0
		c-0.4,0-0.9-0.2-1.2-0.5S2.8,9.8,2.8,9.4z"/>
</g>
</svg>
